<svg preserveAspectRatio="none" width="100%" height="100%" overflow="visible" style="display: block;" viewBox="0 0 25 25" fill="none" xmlns="http://www.w3.org/2000/svg">
<g id="ei:arrow-up">
<path id="Vector" d="M12.5 21C7.8 21 4 17.2 4 12.5C4 7.8 7.8 4 12.5 4C17.2 4 21 7.8 21 12.5C21 17.2 17.2 21 12.5 21ZM12.5 5C8.35 5 5 8.35 5 12.5C5 16.65 8.35 20 12.5 20C16.65 20 20 16.65 20 12.5C20 8.35 16.65 5 12.5 5Z" fill="var(--fill-0, black)"/>
<path id="Vector_2" d="M16.65 13.35L12.5 9.2L8.35 13.35L7.65 12.65L12.5 7.8L17.35 12.65L16.65 13.35Z" fill="var(--fill-0, black)"/>
<path id="Vector_3" d="M12 8.5H13V17H12V8.5Z" fill="var(--fill-0, black)"/>
</g>
</svg>
