<svg preserveAspectRatio="none" width="100%" height="100%" overflow="visible" style="display: block;" viewBox="0 0 32 27" fill="none" xmlns="http://www.w3.org/2000/svg">
<path id="Vector" d="M27.0113 5.53928C26.9095 3.73602 26.7263 2.22295 26.5635 1.18659L19.5613 3.40439C17.9329 0.60623 14.615 -0.658124 11.6024 0.336778C11.3175 0.440413 11.0325 0.544049 10.7475 0.689139C8.14206 1.95349 6.69685 4.66874 6.9004 7.42545L6.83933 7.44618L0 9.62253C0.386748 10.5138 1.03811 11.944 1.97445 13.6229C0.651365 15.1567 0.0203552 17.2501 0.407103 19.4265C1.07882 23.1988 4.62062 25.7068 8.32526 25.0228C8.63058 24.9606 8.93591 24.8984 9.22088 24.7948C9.83154 24.5875 10.4218 24.2973 10.9307 23.945C14.7371 26.5359 17.9329 26.9089 19.5409 26.9089C26.8077 27.4893 29.3114 25.1057 29.3114 25.1057C25.8103 25.313 24.2023 22.8879 23.8359 22.2246C24.3244 21.3541 24.7926 20.3384 25.22 19.1777C25.9121 19.1777 26.6042 19.0741 27.2759 18.8461C27.5609 18.7425 27.8458 18.6388 28.1308 18.4937C31.5301 16.8356 32.955 12.6901 31.3266 9.22871C30.4513 7.34254 28.8432 6.05746 27.0113 5.53928ZM10.1776 6.3891C10.3608 5.2491 11.0528 4.21275 12.152 3.67384C12.2945 3.59093 12.4574 3.52875 12.5998 3.4873C13.9229 3.05203 15.3478 3.46657 16.2638 4.44075L16.2027 4.46147L10.1776 6.3891ZM7.75531 21.7479C5.82157 22.1002 3.96925 20.7944 3.62322 18.8254C3.48073 18.0792 3.60286 17.3123 3.88783 16.6697C5.04808 18.3486 6.45258 20.0897 8.14206 21.665C8.01993 21.7064 7.87744 21.7272 7.75531 21.7479ZM21.9632 23.717L20.9047 23.6341C19.8463 23.5511 18.2586 23.3439 16.6505 22.7221C15.4903 22.3697 14.3504 21.8308 13.2105 21.1053C12.4166 20.5872 11.6431 19.9861 10.8697 19.2814C10.8086 19.2192 10.7475 19.1777 10.7068 19.1155C9.20053 17.7476 7.93851 16.193 6.88004 14.6592C6.22868 13.7058 5.65873 12.773 5.17021 11.9025C5.14985 11.8818 5.14985 11.8611 5.1295 11.8403L8.16242 10.8869L11.2971 9.89198L16.9762 8.08872L17.0373 8.06799L20.172 7.07309L21.5358 6.63782L23.2252 6.09892C23.2863 7.09382 23.3066 8.17163 23.2659 9.27016C23.2049 11.1563 23.0013 13.1669 22.5332 15.1567C22.5332 15.1774 22.5128 15.2188 22.5128 15.2396C22.2482 16.3588 21.9429 17.3745 21.5968 18.2657C21.0676 19.6337 20.4569 20.753 19.8463 21.6443C20.0702 22.1832 20.4162 23.1781 21.9632 23.717ZM26.7263 15.509C26.5838 15.5712 26.421 15.6334 26.2785 15.6956C26.2581 15.6956 26.2581 15.6956 26.2378 15.7163C26.7467 13.4363 26.9706 11.1978 27.052 9.1458C27.6219 9.49816 28.1105 10.0163 28.4158 10.6796C29.2504 12.4621 28.4972 14.6385 26.7263 15.509Z" fill="url(#paint0_linear_0_12)"/>
<defs>
<linearGradient id="paint0_linear_0_12" x1="-0.0250165" y1="19.5337" x2="33.2655" y2="9.19882" gradientUnits="userSpaceOnUse">
<stop stop-color="#2F3794"/>
<stop offset="0.0347527" stop-color="#4E378F"/>
<stop offset="0.1214" stop-color="#863884"/>
<stop offset="0.1991" stop-color="#AE397C"/>
<stop offset="0.2651" stop-color="#CC3B75"/>
<stop offset="0.3168" stop-color="#DE3C71"/>
<stop offset="0.3478" stop-color="#E53C70"/>
<stop offset="0.6231" stop-color="#882F92"/>
<stop offset="0.9816" stop-color="#4994D0"/>
</linearGradient>
</defs>
</svg>
